<svg width="100" height="21" viewBox="0 0 100 21" fill="none" xmlns="http://www.w3.org/2000/svg">
<g id="resend">
<path id="Vector" d="M0.000244141 20.6207H4.41902V13.698H8.13082L11.6069 20.6207H16.497L12.4318 12.6669C14.5822 11.6359 15.9667 9.51487 15.9667 6.86359C15.9667 2.68049 12.9325 -0.000244141 8.39592 -0.000244141H0.000244141V20.6207ZM8.04241 3.68204C10.134 3.68204 11.4596 4.91934 11.4596 6.86359C11.4596 8.77842 10.134 10.0156 8.04241 10.0156H4.41902V3.68204H8.04241ZM25.2825 20.7974C29.3184 20.7974 31.9402 18.4408 32.4115 15.495H28.3167C27.9633 16.9089 26.7849 17.6454 25.1058 17.6454C23.0143 17.6454 21.6297 16.3492 21.5413 14.1987V13.9926H32.5293C32.6177 13.5212 32.6472 13.0204 32.6472 12.5785C32.5883 8.13031 29.5246 5.30228 24.9879 5.30228C20.3041 5.30228 17.2109 8.36599 17.2109 13.0794C17.2109 17.7632 20.2451 20.7974 25.2825 20.7974ZM21.6297 11.2824C21.8654 9.48538 23.2204 8.39541 25.0174 8.39541C26.9028 8.39541 28.1695 9.42646 28.4641 11.2824H21.6297ZM34.095 15.5833C34.2718 18.8238 37.1293 20.7974 41.3418 20.7974C45.4071 20.7974 48.2351 18.8827 48.2351 15.8779C48.2351 12.4607 45.3482 11.6653 41.8721 11.3118C39.6921 11.0467 38.396 10.9289 38.396 9.77997C38.396 8.80784 39.4564 8.21866 41.0767 8.21866C42.7558 8.21866 43.9047 8.95511 44.0226 10.1629H47.9994C47.7932 7.06977 44.9947 5.27285 40.9294 5.27285C37.0408 5.24336 34.4191 7.2171 34.4191 10.2218C34.4191 13.3445 37.1587 14.1398 40.6937 14.5523C43.1388 14.8763 44.1698 14.9647 44.1698 16.2019C44.1698 17.2625 43.1093 17.8221 41.3713 17.8221C39.3386 17.8221 38.1897 16.9089 38.0425 15.5833H34.095ZM57.9056 20.7974C61.9414 20.7974 64.5632 18.4408 65.0345 15.495H60.9398C60.5863 16.9089 59.408 17.6454 57.7288 17.6454C55.6372 17.6454 54.2527 16.3492 54.1643 14.1987V13.9926H65.1524C65.2407 13.5212 65.2702 13.0204 65.2702 12.5785C65.2113 8.13031 62.1476 5.30228 57.611 5.30228C52.9271 5.30228 49.8339 8.36599 49.8339 13.0794C49.8339 17.7632 52.8682 20.7974 57.9056 20.7974ZM54.2527 11.2824C54.4883 9.48538 55.8435 8.39541 57.6404 8.39541C59.5258 8.39541 60.7925 9.42646 61.087 11.2824H54.2527ZM76.2303 5.30228C73.9035 5.30228 72.5185 6.18606 71.5467 7.36437L71.1634 5.47903H67.5401V20.6207H71.6935V12.8731C71.6935 10.2513 72.931 8.7195 75.0811 8.7195C77.1729 8.7195 78.1453 10.0746 78.1453 12.6374V20.6207H82.2989V12.2251C82.2989 7.04035 79.5004 5.30228 76.2303 5.30228ZM95.8467 7.36437C94.8742 6.12714 93.3717 5.30228 91.2807 5.30228C87.2447 5.30228 84.2695 8.33649 84.2695 13.0204C84.2695 17.8221 87.2447 20.7974 91.3099 20.7974C93.49 20.7974 94.9626 19.8253 95.9643 18.5292L96.3768 20.6207H100V-0.000244141H95.8467V7.36437ZM92.2232 17.4097C89.9548 17.4097 88.5114 15.6422 88.5114 13.0499C88.5114 10.4575 89.9548 8.69001 92.2232 8.69001C94.4917 8.69001 95.9051 10.487 95.9051 13.0794C95.9051 15.6422 94.4917 17.4097 92.2232 17.4097Z" fill="white"/>
</g>
</svg>
